<?xml version="1.0" encoding="UTF-8"?>
<svg width="100px" height="91px" viewBox="0 0 100 91" version="1.1" xmlns="http://www.w3.org/2000/svg" xmlns:xlink="http://www.w3.org/1999/xlink">
    <!-- Generator: Sketch 44.1 (41455) - http://www.bohemiancoding.com/sketch -->
    <title>impression2</title>
    <desc>Created with Sketch.</desc>
    <defs></defs>
    <g id="马上待完成" stroke="none" stroke-width="1" fill="none" fill-rule="evenodd">
        <g id="impression" transform="translate(50.000000, 45.500000) scale(-1, -1) translate(-50.000000, -45.500000) ">
            <g id="Combined-Shape">
                <g id="path-1-link" fill-rule="nonzero" fill="#000000">
                    <path d="M76.6984848,81 L96.0026765,81 C98.20047,81 100,79.2078058 100,76.9970221 L100,4.00297786 C100,1.78620129 98.210337,1.49213975e-13 96.0026765,1.49213975e-13 L3.99732351,1.49213975e-13 C1.79952991,1.49213975e-13 0,1.79219423 0,4.00297786 L0,76.9970221 C0,79.2137987 1.78966269,81 3.99732351,81 L57.1005051,81 L66.8994949,90.7989899 L76.6984848,81 Z" id="path-1"></path>
                </g>
                <g id="path-1-link" fill="#FFFFFF">
                    <path d="M76.6984848,81 L96.0026765,81 C98.20047,81 100,79.2078058 100,76.9970221 L100,4.00297786 C100,1.78620129 98.210337,1.49213975e-13 96.0026765,1.49213975e-13 L3.99732351,1.49213975e-13 C1.79952991,1.49213975e-13 0,1.79219423 0,4.00297786 L0,76.9970221 C0,79.2137987 1.78966269,81 3.99732351,81 L57.1005051,81 L66.8994949,90.7989899 L76.6984848,81 Z" id="path-1"></path>
                </g>
                <path d="M66.8994949,90.0918831 L57.4540585,80.6464466 L57.3076118,80.5 L57.1005051,80.5 L3.99732351,80.5 C2.06377848,80.5 0.5,78.9356289 0.5,76.9970221 L0.5,4.00297786 C0.5,2.07177595 2.07223196,0.5 3.99732351,0.5 L96.0026765,0.5 C97.9362215,0.5 99.5,2.06437106 99.5,4.00297786 L99.5,76.9970221 C99.5,78.9282241 97.927768,80.5 96.0026765,80.5 L76.6984848,80.5 L76.491378,80.5 L76.3449314,80.6464466 L66.8994949,90.0918831 Z" id="Shape" stroke="#E9ECEE"></path>
            </g>
            <rect id="Rectangle-19-Copy-2" fill="#E9ECEE" fill-rule="nonzero" x="0" y="40" width="100" height="1"></rect>
        </g>
    </g>
</svg>